<?xml version="1.0" standalone="no"?>
<!DOCTYPE svg PUBLIC "-//W3C//DTD SVG 20010904//EN"
 "http://www.w3.org/TR/2001/REC-SVG-20010904/DTD/svg10.dtd">
<svg version="1.0" xmlns="http://www.w3.org/2000/svg"
 width="2615.000000pt" height="2749.000000pt" viewBox="0 0 2615.000000 2749.000000"
 preserveAspectRatio="xMidYMid meet">

<g transform="translate(0.000000,2749.000000) scale(0.100000,-0.100000)"
fill="#000000" stroke="none">
<path d="M6600 25966 l0 -1523 -167 -7 c-2178 -88 -4183 -368 -6138 -858 -154
-38 -283 -73 -287 -76 -6 -6 405 -1588 415 -1598 2 -3 121 24 263 60 1722 431
3537 698 5379 790 165 9 353 18 418 21 l117 6 0 -9075 0 -9076 -27 0 c-112 0
-869 42 -1107 61 -71 5 -131 7 -134 4 -6 -6 -135 -1646 -130 -1650 9 -8 868
-59 1205 -71 l193 -7 2 -1481 3 -1481 828 -3 827 -2 0 11396 0 11397 228 -7
c125 -3 298 -9 384 -13 l158 -6 2 -11381 3 -11381 830 0 830 0 3 1542 2 1542
33 5 c17 3 147 17 287 31 1688 173 3472 521 5055 986 303 89 778 240 1001 317
l171 60 2244 -2244 2244 -2244 1167 0 c643 0 1168 3 1168 8 0 4 -1154 1161
-2565 2572 -1411 1411 -2565 2567 -2565 2571 0 3 89 45 198 94 256 116 852
412 1107 550 2441 1318 4181 2944 5122 4785 354 693 600 1451 707 2175 200
1363 -28 2714 -679 4016 -590 1179 -1530 2295 -2765 3283 -2554 2046 -6302
3501 -10560 4101 -363 51 -816 106 -1140 138 l-225 23 -3 1587 -2 1587 -835 0
-835 0 0 -1531 0 -1532 -97 6 c-54 4 -227 10 -385 13 l-288 7 0 1519 0 1518
-830 0 -830 0 0 -1524z m4485 -3362 c3152 -350 6147 -1235 8455 -2497 1907
-1043 3308 -2279 4127 -3642 478 -795 740 -1585 804 -2425 13 -176 7 -666 -11
-825 -72 -651 -232 -1196 -530 -1800 -138 -280 -235 -448 -407 -709 -437 -660
-1035 -1313 -1749 -1907 -1705 -1421 -4109 -2571 -6880 -3293 -1240 -323
-2592 -570 -3879 -711 -126 -13 -249 -27 -272 -31 l-43 -5 0 8945 0 8945 33
-5 c17 -2 176 -20 352 -40z"/>
</g>
</svg>
