<?xml version="1.0" standalone="no"?>
<!DOCTYPE svg PUBLIC "-//W3C//DTD SVG 20010904//EN"
 "http://www.w3.org/TR/2001/REC-SVG-20010904/DTD/svg10.dtd">
<svg version="1.0" xmlns="http://www.w3.org/2000/svg"
 width="2762.000000pt" height="599.000000pt" viewBox="0 0 2762.000000 599.000000"
 preserveAspectRatio="xMidYMid meet">

<g transform="translate(0.000000,599.000000) scale(0.100000,-0.100000)"
fill="#000000" stroke="none">
<path d="M9430 5745 l0 -234 -72 -4 -73 -3 78 -2 77 -2 0 240 c0 132 -2 240
-5 240 -3 0 -5 -106 -5 -235z"/>
<path d="M9692 5743 l-2 -243 65 0 65 0 -2 243 -3 242 -2 -237 -3 -238 -55 0
-55 0 -3 238 -2 237 -3 -242z"/>
<path d="M10072 5734 l-2 -251 111 -12 c61 -7 113 -11 115 -8 3 2 -45 10 -106
17 l-110 13 -3 246 -2 246 -3 -251z"/>
<path d="M9188 5493 c17 -2 47 -2 65 0 17 2 3 4 -33 4 -36 0 -50 -2 -32 -4z"/>
<path d="M9083 5483 c15 -2 37 -2 50 0 12 2 0 4 -28 4 -27 0 -38 -2 -22 -4z"/>
<path d="M8905 5465 c-93 -16 -43 -17 65 0 50 7 68 13 45 13 -22 0 -71 -6
-110 -13z"/>
<path d="M10375 5444 c39 -7 79 -13 90 -12 11 0 -9 6 -45 14 -36 7 -76 13 -90
12 -14 0 7 -6 45 -14z"/>
<path d="M8793 5443 c9 -2 23 -2 30 0 6 3 -1 5 -18 5 -16 0 -22 -2 -12 -5z"/>
<path d="M8695 5430 c-27 -7 -27 -8 -5 -8 14 0 39 4 55 8 27 7 27 8 5 8 -14 0
-38 -4 -55 -8z"/>
<path d="M10515 5420 c17 -4 39 -8 50 -8 16 0 15 2 -5 8 -14 4 -36 8 -50 8
-22 0 -22 -1 5 -8z"/>
<path d="M8555 5400 c-38 -10 -63 -18 -55 -18 8 -1 49 7 90 17 41 11 66 19 55
19 -11 0 -51 -8 -90 -18z"/>
<path d="M10598 5403 c6 -2 18 -2 25 0 6 3 1 5 -13 5 -14 0 -19 -2 -12 -5z"/>
<path d="M10648 5393 c7 -3 16 -2 19 1 4 3 -2 6 -13 5 -11 0 -14 -3 -6 -6z"/>
<path d="M10745 5369 c39 -10 74 -17 80 -16 11 4 -118 37 -137 36 -7 0 19 -9
57 -20z"/>
<path d="M8458 5373 c7 -3 16 -2 19 1 4 3 -2 6 -13 5 -11 0 -14 -3 -6 -6z"/>
<path d="M8410 5353 c0 -10 4 -14 8 -8 4 6 11 13 16 18 5 4 2 7 -7 7 -10 0
-17 -8 -17 -17z"/>
<path d="M10855 5340 c11 -5 27 -9 35 -9 9 0 8 4 -5 9 -11 5 -27 9 -35 9 -9 0
-8 -4 5 -9z"/>
<path d="M8426 5300 c4 -19 11 -44 15 -55 6 -14 7 -9 3 15 -4 19 -11 44 -15
55 -6 14 -7 9 -3 -15z"/>
<path d="M11060 5275 c159 -56 176 -61 150 -45 -22 12 -280 100 -294 99 -6 0
59 -25 144 -54z"/>
<path d="M9690 3490 l0 -1770 -125 0 -125 0 0 229 0 229 -31 6 c-17 3 -64 6
-105 6 l-73 0 -4 65 -3 65 0 -67 1 -68 70 -2 c39 -2 85 -5 102 -8 l33 -6 2
-227 3 -227 130 0 130 0 3 1768 2 1767 24 0 c13 0 38 -3 55 -6 l31 -6 0 -1765
0 -1764 133 3 132 3 5 243 c3 133 2 242 -2 242 -5 0 -8 -108 -8 -240 l0 -240
-125 0 -125 0 0 1764 0 1763 -37 7 c-21 3 -50 6 -65 6 l-28 0 0 -1770z"/>
<path d="M9195 5240 c-33 -4 6 -5 88 -2 l147 5 0 -1402 0 -1403 -100 7 -100 8
2 -64 2 -64 3 59 4 58 100 -7 99 -7 0 1411 0 1411 -92 -2 c-51 -1 -120 -4
-153 -8z"/>
<path d="M9068 5223 c12 -2 32 -2 45 0 12 2 2 4 -23 4 -25 0 -35 -2 -22 -4z"/>
<path d="M10070 3841 l0 -1391 58 6 c31 4 59 9 62 12 3 3 -21 2 -52 -1 l-58
-6 0 1381 0 1381 68 -7 c37 -4 87 -9 112 -11 l45 -4 -40 8 c-22 5 -75 13 -117
16 l-78 8 0 -1392z"/>
<path d="M8451 5204 c0 -11 3 -14 6 -6 3 7 2 16 -1 19 -3 4 -6 -2 -5 -13z"/>
<path d="M8988 5213 c12 -2 30 -2 40 0 9 3 -1 5 -23 4 -22 0 -30 -2 -17 -4z"/>
<path d="M11240 5210 c8 -5 20 -10 25 -10 6 0 3 5 -5 10 -8 5 -19 10 -25 10
-5 0 -3 -5 5 -10z"/>
<path d="M8913 5203 c9 -2 25 -2 35 0 9 3 1 5 -18 5 -19 0 -27 -2 -17 -5z"/>
<path d="M8853 5193 c9 -2 23 -2 30 0 6 3 -1 5 -18 5 -16 0 -22 -2 -12 -5z"/>
<path d="M10345 5189 c51 -10 92 -10 50 1 -16 4 -43 8 -60 8 -25 0 -24 -2 10
-9z"/>
<path d="M11455 5111 c284 -141 465 -270 650 -462 113 -118 178 -210 247 -349
26 -52 48 -90 48 -85 0 6 -22 55 -50 110 -121 243 -355 480 -660 670 -91 56
-384 205 -405 205 -5 0 71 -40 170 -89z"/>
<path d="M8755 5180 c-27 -7 -27 -8 -5 -8 14 0 39 4 55 8 27 7 27 8 5 8 -14 0
-38 -4 -55 -8z"/>
<path d="M8461 5164 c0 -11 3 -14 6 -6 3 7 2 16 -1 19 -3 4 -6 -2 -5 -13z"/>
<path d="M10485 5164 c33 -7 67 -13 75 -12 23 1 -82 26 -110 26 -14 0 2 -6 35
-14z"/>
<path d="M8688 5163 c6 -2 18 -2 25 0 6 3 1 5 -13 5 -14 0 -19 -2 -12 -5z"/>
<path d="M8610 5150 c-20 -6 -21 -8 -5 -8 11 0 31 4 45 8 20 6 21 8 5 8 -11 0
-31 -4 -45 -8z"/>
<path d="M10665 5124 c50 -13 94 -22 100 -21 11 4 -158 47 -177 46 -7 0 28
-12 77 -25z"/>
<path d="M8470 5127 c0 -10 8 -17 18 -17 9 0 13 4 7 8 -5 4 -13 11 -17 16 -5
5 -8 2 -8 -7z"/>
<path d="M8558 5133 c7 -3 16 -2 19 1 4 3 -2 6 -13 5 -11 0 -14 -3 -6 -6z"/>
<path d="M8518 5123 c7 -3 16 -2 19 1 4 3 -2 6 -13 5 -11 0 -14 -3 -6 -6z"/>
<path d="M10795 5090 c11 -5 27 -9 35 -9 9 0 8 4 -5 9 -11 5 -27 9 -35 9 -9 0
-8 -4 5 -9z"/>
<path d="M21615 5089 c-389 -30 -732 -184 -996 -448 -211 -212 -334 -437 -402
-739 -18 -84 -21 -128 -21 -322 0 -195 3 -238 22 -323 88 -397 298 -709 617
-922 298 -198 654 -287 1053 -264 287 17 554 103 775 249 75 50 271 226 265
239 -2 4 -81 81 -177 172 l-173 166 -57 -55 c-204 -196 -446 -292 -739 -292
-417 0 -757 203 -936 557 -82 163 -118 383 -97 587 45 443 321 769 749 883 87
24 116 26 282 27 161 1 197 -2 274 -22 165 -42 332 -134 466 -258 l60 -56 92
88 c51 48 130 124 176 168 l83 79 -78 79 c-238 240 -562 378 -956 408 -73 5
-143 9 -157 9 -14 -1 -70 -5 -125 -10z"/>
<path d="M25880 5090 c-869 -72 -1474 -735 -1437 -1575 7 -167 28 -281 77
-428 148 -444 488 -780 941 -931 347 -116 757 -119 1104 -9 245 78 438 194
615 372 235 235 368 500 416 824 22 151 15 429 -15 569 -102 472 -420 854
-872 1049 -236 102 -554 152 -829 129z m430 -513 c492 -129 797 -585 742
-1109 -14 -137 -41 -236 -92 -345 -130 -277 -366 -471 -665 -544 -119 -30
-325 -36 -453 -15 -347 58 -600 248 -748 560 -75 160 -89 230 -89 456 0 172 3
205 23 280 26 99 93 243 153 332 137 203 376 353 642 404 117 22 368 12 487
-19z"/>
<path d="M10944 5044 c55 -18 101 -32 103 -30 5 5 -177 66 -192 65 -6 0 35
-16 89 -35z"/>
<path d="M10 3580 l0 -1470 723 0 c443 0 755 4 807 10 381 48 697 187 935 412
209 197 341 446 402 753 25 127 25 463 0 590 -113 570 -495 966 -1074 1116
-219 56 -274 59 -1069 59 l-724 0 0 -1470z m1399 999 c281 -26 514 -130 677
-300 72 -76 109 -129 158 -226 134 -268 137 -658 6 -932 -135 -281 -365 -451
-710 -523 -84 -18 -147 -20 -537 -25 l-443 -5 0 1011 0 1011 368 0 c202 0 418
-5 481 -11z"/>
<path d="M4713 4113 c4 -911 4 -941 25 -1052 81 -424 284 -705 626 -867 184
-87 381 -125 641 -125 260 0 457 38 641 125 125 59 204 115 300 210 138 138
228 297 288 511 55 194 56 225 56 1219 l0 916 -270 0 -270 0 0 -878 c0 -538
-4 -909 -10 -959 -45 -355 -206 -563 -495 -639 -97 -26 -369 -26 -470 -1 -214
54 -363 188 -442 398 -67 177 -66 158 -70 1167 l-4 912 -275 0 -275 0 4 -937z"/>
<path d="M13956 3718 c-330 -733 -628 -1395 -662 -1471 l-63 -137 285 2 286 3
142 335 143 335 735 3 734 2 146 -337 145 -338 287 -3 c271 -2 287 -1 282 15
-3 10 -300 671 -660 1468 l-655 1450 -273 3 -273 2 -599 -1332z m1148 130
c146 -339 266 -620 266 -623 0 -3 -245 -5 -545 -5 -300 0 -545 2 -545 5 0 7
518 1222 532 1249 9 16 12 17 18 5 4 -8 128 -292 274 -631z"/>
<path d="M11075 5000 c11 -5 70 -30 130 -56 442 -184 768 -455 917 -759 27
-55 46 -89 42 -75 -12 47 -94 195 -144 261 -160 214 -468 435 -800 577 -105
45 -199 79 -145 52z"/>
<path d="M12421 4135 c0 -5 6 -32 13 -60 8 -27 14 -41 14 -30 0 21 -25 107
-27 90z"/>
<path d="M12171 4070 c0 -8 4 -24 9 -35 5 -13 9 -14 9 -5 0 8 -4 24 -9 35 -5
13 -9 14 -9 5z"/>
<path d="M12452 3990 c0 -19 2 -27 5 -17 2 9 2 25 0 35 -3 9 -5 1 -5 -18z"/>
<path d="M12195 3848 c-1 -141 -4 -172 -22 -228 -12 -35 -20 -66 -18 -68 2 -2
14 27 26 65 24 75 37 286 22 356 -5 26 -8 -15 -8 -125z"/>
<path d="M12457 3813 c-4 -76 -9 -151 -12 -168 l-5 -30 11 30 c11 31 26 305
17 305 -3 0 -8 -62 -11 -137z"/>
<path d="M12431 3594 c0 -11 3 -14 6 -6 3 7 2 16 -1 19 -3 4 -6 -2 -5 -13z"/>
<path d="M12407 3518 c-9 -29 -15 -54 -13 -56 2 -2 12 20 21 48 9 28 15 53 13
55 -2 3 -12 -19 -21 -47z"/>
<path d="M12121 3493 c-135 -278 -462 -553 -873 -734 -54 -23 -96 -44 -94 -46
8 -8 234 99 344 163 292 170 515 384 624 598 16 32 28 60 26 62 -3 2 -14 -18
-27 -43z"/>
<path d="M12354 3387 c-143 -305 -460 -594 -882 -805 l-133 -66 398 -398 398
-398 -175 0 -175 0 -355 352 -355 353 355 -357 355 -358 182 0 c101 0 183 3
183 8 0 4 -178 185 -395 402 l-394 394 140 73 c405 209 691 468 843 762 26 51
46 94 44 97 -3 2 -18 -24 -34 -59z"/>
<path d="M18209 2765 c-151 -48 -240 -175 -238 -337 2 -203 146 -348 344 -348
210 0 356 160 343 377 -8 138 -73 234 -197 291 -69 32 -182 39 -252 17z"/>
<path d="M11110 2700 c-8 -5 -10 -10 -5 -10 6 0 17 5 25 10 8 5 11 10 5 10 -5
0 -17 -5 -25 -10z"/>
<path d="M11032 2673 c-24 -8 -41 -17 -39 -19 4 -5 97 26 97 32 0 6 -11 4 -58
-13z"/>
<path d="M10860 2615 c-19 -7 -28 -13 -20 -13 8 0 31 6 50 13 19 7 28 13 20
13 -8 0 -31 -6 -50 -13z"/>
<path d="M10775 2590 c-13 -5 -14 -9 -5 -9 8 0 24 4 35 9 13 5 14 9 5 9 -8 0
-24 -4 -35 -9z"/>
<path d="M10728 2573 c7 -3 16 -2 19 1 4 3 -2 6 -13 5 -11 0 -14 -3 -6 -6z"/>
<path d="M10688 2563 c7 -3 16 -2 19 1 4 3 -2 6 -13 5 -11 0 -14 -3 -6 -6z"/>
<path d="M10648 2553 c7 -3 16 -2 19 1 4 3 -2 6 -13 5 -11 0 -14 -3 -6 -6z"/>
<path d="M10570 2540 c-20 -6 -21 -8 -5 -8 11 0 31 4 45 8 20 6 21 8 5 8 -11
0 -31 -4 -45 -8z"/>
<path d="M10420 2509 c-59 -12 -69 -16 -34 -13 56 6 171 32 139 32 -11 0 -58
-9 -105 -19z"/>
<path d="M10235 2480 c-34 -6 -36 -7 -10 -8 17 0 48 3 70 7 33 7 35 9 10 8
-16 0 -48 -3 -70 -7z"/>
<path d="M10920 2365 c-19 -7 -28 -13 -20 -13 8 0 31 6 50 13 19 7 28 13 20
13 -8 0 -31 -6 -50 -13z"/>
<path d="M10835 2340 c-13 -5 -14 -9 -5 -9 8 0 24 4 35 9 13 5 14 9 5 9 -8 0
-24 -4 -35 -9z"/>
<path d="M10788 2323 c7 -3 16 -2 19 1 4 3 -2 6 -13 5 -11 0 -14 -3 -6 -6z"/>
<path d="M10748 2313 c7 -3 16 -2 19 1 4 3 -2 6 -13 5 -11 0 -14 -3 -6 -6z"/>
<path d="M10708 2303 c7 -3 16 -2 19 1 4 3 -2 6 -13 5 -11 0 -14 -3 -6 -6z"/>
<path d="M10630 2290 c-20 -6 -21 -8 -5 -8 11 0 31 4 45 8 20 6 21 8 5 8 -11
0 -31 -4 -45 -8z"/>
<path d="M10510 2265 c-30 -7 -44 -13 -30 -13 14 0 48 6 75 13 65 16 27 17
-45 0z"/>
<path d="M10413 2243 c9 -2 23 -2 30 0 6 3 -1 5 -18 5 -16 0 -22 -2 -12 -5z"/>
<path d="M10353 2233 c9 -2 23 -2 30 0 6 3 -1 5 -18 5 -16 0 -22 -2 -12 -5z"/>
<path d="M10283 2223 c9 -2 25 -2 35 0 9 3 1 5 -18 5 -19 0 -27 -2 -17 -5z"/>
<path d="M10208 2213 c12 -2 30 -2 40 0 9 3 -1 5 -23 4 -22 0 -30 -2 -17 -4z"/>
<path d="M10118 2203 c12 -2 32 -2 45 0 12 2 2 4 -23 4 -25 0 -35 -2 -22 -4z"/>
<path d="M3117 666 c-158 -343 -290 -632 -293 -641 -6 -14 2 -16 67 -13 l73 3
74 167 75 168 357 0 356 0 75 -167 75 -168 72 -3 c40 -2 72 0 72 4 0 6 -514
1130 -563 1232 l-21 42 -66 0 -67 0 -286 -624z m500 146 c78 -174 145 -325
149 -334 6 -17 -12 -18 -295 -18 -166 0 -301 3 -301 7 0 13 294 663 300 663 3
0 69 -143 147 -318z"/>
<path d="M6540 650 l0 -640 70 0 70 0 0 200 0 200 210 0 c228 0 319 12 414 54
155 70 240 207 240 386 0 178 -81 308 -239 382 -102 47 -186 57 -492 58 l-273
0 0 -640z m575 510 c90 -13 184 -59 225 -109 45 -58 63 -114 63 -208 0 -133
-51 -216 -168 -269 -74 -34 -158 -44 -367 -44 l-188 0 0 320 0 320 183 0 c100
0 214 -5 252 -10z"/>
<path d="M10040 650 l0 -640 70 0 70 0 0 200 0 200 210 0 c153 0 232 4 288 16
206 42 332 164 362 350 31 195 -54 365 -224 449 -109 54 -187 64 -503 65
l-273 0 0 -640z m575 510 c94 -13 189 -62 232 -118 42 -55 57 -109 56 -203 -1
-167 -97 -268 -283 -298 -36 -6 -149 -11 -252 -11 l-188 0 0 320 0 320 183 0
c100 0 214 -5 252 -10z"/>
<path d="M13570 669 c-157 -342 -288 -630 -292 -640 -7 -17 -1 -19 65 -19 l72
0 75 168 75 167 358 0 358 0 74 -165 74 -165 75 -3 76 -3 -20 43 c-12 24 -144
311 -294 638 l-273 595 -69 3 -69 2 -285 -621z m357 -207 c-165 -1 -302 -1
-304 1 -2 3 210 483 287 649 13 27 19 14 165 -310 l152 -337 -300 -3z"/>
<path d="M16990 650 l0 -640 70 0 70 0 0 200 0 200 209 0 c115 0 215 2 223 5
8 3 67 -72 158 -200 l144 -205 73 0 c40 0 73 3 73 6 0 3 -68 100 -151 216 -82
116 -149 211 -147 212 2 1 30 15 63 31 150 72 235 227 222 405 -15 223 -155
360 -407 400 -36 5 -185 10 -332 10 l-268 0 0 -640z m574 510 c85 -13 173 -51
214 -93 56 -58 77 -120 76 -222 -1 -100 -14 -142 -65 -200 -81 -92 -172 -115
-456 -115 l-203 0 0 320 0 320 183 0 c100 0 213 -5 251 -10z"/>
<path d="M20520 650 l0 -640 455 0 455 0 0 60 0 60 -385 0 -385 0 0 235 0 235
330 0 330 0 0 60 0 60 -330 0 -330 0 0 225 0 225 370 0 370 0 0 60 0 60 -440
0 -440 0 0 -640z"/>
<path d="M23950 650 l0 -640 430 0 431 0 -3 57 -3 58 -357 3 -358 2 -2 578 -3
577 -67 3 -68 3 0 -641z"/>
</g>
</svg>
