<?xml version="1.0" encoding="UTF-8"?>
<!DOCTYPE svg PUBLIC "-//W3C//DTD SVG 1.1//EN" "http://www.w3.org/Graphics/SVG/1.1/DTD/svg11.dtd">
<svg xmlns="http://www.w3.org/2000/svg" version="1.1" width="2762px" height="715px" style="shape-rendering:geometricPrecision; text-rendering:geometricPrecision; image-rendering:optimizeQuality; fill-rule:evenodd; clip-rule:evenodd" xmlns:xlink="http://www.w3.org/1999/xlink">
<g><path style="opacity:0.974" fill="#f69447" d="M 914.5,-0.5 C 925.833,-0.5 937.167,-0.5 948.5,-0.5C 948.5,19.5 948.5,39.5 948.5,59.5C 953.167,59.5 957.833,59.5 962.5,59.5C 962.5,39.5 962.5,19.5 962.5,-0.5C 973.833,-0.5 985.167,-0.5 996.5,-0.5C 996.5,20.5 996.5,41.5 996.5,62.5C 1066.63,67.6958 1132.63,86.8624 1194.5,120C 1230.01,139.511 1259.18,166.011 1282,199.5C 1315.35,259.834 1310.01,316.501 1266,369.5C 1244.72,393.123 1220.22,412.623 1192.5,428C 1182.01,433.078 1171.68,438.411 1161.5,444C 1195.35,477.68 1229.01,511.514 1262.5,545.5C 1246.84,546.666 1231.18,546.833 1215.5,546C 1185.96,516.126 1156.13,486.626 1126,457.5C 1083.91,471.684 1040.75,480.684 996.5,484.5C 996.5,505.167 996.5,525.833 996.5,546.5C 985.167,546.5 973.833,546.5 962.5,546.5C 962.5,395.5 962.5,244.5 962.5,93.5C 957.833,93.5 953.167,93.5 948.5,93.5C 948.5,244.5 948.5,395.5 948.5,546.5C 937.167,546.5 925.833,546.5 914.5,546.5C 914.5,526.833 914.5,507.167 914.5,487.5C 905.161,486.868 895.828,486.202 886.5,485.5C 887.247,474.458 888.247,463.458 889.5,452.5C 890,452.167 890.5,451.833 891,451.5C 898.815,452.303 906.648,452.97 914.5,453.5C 914.5,333.5 914.5,213.5 914.5,93.5C 872.936,94.7988 832.103,100.799 792,111.5C 788.933,101.066 786.1,90.5655 783.5,80C 783.645,79.228 783.978,78.5613 784.5,78C 827.16,67.12 870.493,60.9534 914.5,59.5C 914.5,39.5 914.5,19.5 914.5,-0.5 Z M 996.5,96.5 C 1065.55,102.005 1129.88,122.172 1189.5,157C 1218.05,174.548 1240.88,197.714 1258,226.5C 1275.28,263.148 1272.95,298.481 1251,332.5C 1235.75,353.752 1217.25,371.585 1195.5,386C 1145.03,417.05 1090.36,437.05 1031.5,446C 1019.87,447.829 1008.2,449.329 996.5,450.5C 996.5,332.5 996.5,214.5 996.5,96.5 Z"/></g>
<g><path style="opacity:0.98" fill="#000000" d="M 2164.5,147.5 C 2207,144.784 2245,156.284 2278.5,182C 2283.55,186.711 2288.21,191.711 2292.5,197C 2281.04,208.796 2269.2,220.296 2257,231.5C 2224.87,198.924 2186.7,189.091 2142.5,202C 2097.99,219.164 2075.32,251.664 2074.5,299.5C 2074.94,343.559 2094.94,375.059 2134.5,394C 2181.28,411.1 2222.28,402.267 2257.5,367.5C 2269.29,378.154 2280.79,389.154 2292,400.5C 2292.67,401.5 2292.67,402.5 2292,403.5C 2266.73,430.55 2235.57,446.05 2198.5,450C 2140.53,457.238 2091.7,439.738 2052,397.5C 2019.34,354.569 2010.01,306.902 2024,254.5C 2042.3,199.874 2079.46,165.707 2135.5,152C 2145.23,149.968 2154.9,148.468 2164.5,147.5 Z"/></g>
<g><path style="opacity:0.982" fill="#000000" d="M 2761.5,291.5 C 2761.5,296.5 2761.5,301.5 2761.5,306.5C 2756.56,371.543 2723.9,416.376 2663.5,441C 2617.04,456.509 2571.37,454.509 2526.5,435C 2472.27,406.407 2444.6,361.24 2443.5,299.5C 2445.49,231.305 2477.82,184.138 2540.5,158C 2591.09,141.085 2640.09,144.751 2687.5,169C 2733.07,197.095 2757.73,237.928 2761.5,291.5 Z M 2592.5,196.5 C 2630.86,194.215 2662.03,207.882 2686,237.5C 2711.03,277.412 2711.7,317.745 2688,358.5C 2664.48,389.912 2632.98,404.412 2593.5,402C 2540.17,395.342 2509.01,365.509 2500,312.5C 2496.31,275.878 2507.81,245.044 2534.5,220C 2551.56,206.374 2570.89,198.541 2592.5,196.5 Z"/></g>
<g><path style="opacity:0.977" fill="#000000" d="M -0.5,151.5 C 50.5161,151.073 101.516,151.573 152.5,153C 196.253,157.124 232.42,175.624 261,208.5C 288.033,247.335 296.366,290.001 286,336.5C 272.245,388.923 239.412,423.089 187.5,439C 175.728,442.488 163.728,444.821 151.5,446C 100.848,447.416 50.1814,447.916 -0.5,447.5C -0.5,348.833 -0.5,250.167 -0.5,151.5 Z M 55.5,199.5 C 84.5019,199.333 113.502,199.5 142.5,200C 200.885,207.648 231.218,240.815 233.5,299.5C 232.937,348.204 209.604,380.038 163.5,395C 156.604,396.872 149.604,398.205 142.5,399C 113.502,399.5 84.5019,399.667 55.5,399.5C 55.5,332.833 55.5,266.167 55.5,199.5 Z"/></g>
<g><path style="opacity:0.979" fill="#000000" d="M 470.5,151.5 C 489.167,151.5 507.833,151.5 526.5,151.5C 526.333,212.168 526.5,272.834 527,333.5C 530.722,378.724 555.222,401.724 600.5,402.5C 636.475,403.326 659.642,386.66 670,352.5C 672.091,344.288 673.424,335.955 674,327.5C 674.5,268.834 674.667,210.168 674.5,151.5C 692.833,151.5 711.167,151.5 729.5,151.5C 729.667,210.168 729.5,268.834 729,327.5C 724.365,408.301 681.531,449.634 600.5,451.5C 521.77,450.928 478.603,411.595 471,333.5C 470.5,272.834 470.333,212.168 470.5,151.5 Z"/></g>
<g><path style="opacity:0.982" fill="#000000" d="M 1454.5,151.5 C 1473.08,151.174 1491.58,151.507 1510,152.5C 1553.89,250.619 1598.06,348.619 1642.5,446.5C 1623.18,447.666 1603.84,447.833 1584.5,447C 1574.5,424.333 1564.5,401.667 1554.5,379C 1505.83,378.167 1457.16,378.333 1408.5,379.5C 1398.96,402.073 1389.3,424.573 1379.5,447C 1360.5,447.5 1341.5,447.667 1322.5,447.5C 1366.49,348.844 1410.49,250.177 1454.5,151.5 Z M 1481.5,209.5 C 1500.11,251.125 1518.44,292.958 1536.5,335C 1500.17,335.667 1463.83,335.667 1427.5,335C 1445.64,293.214 1463.64,251.381 1481.5,209.5 Z"/></g>
<g><path style="opacity:0.978" fill="#000000" d="M 1822.5,379.5 C 1853.85,377.679 1868.01,392.345 1865,423.5C 1859.91,440.248 1848.58,449.248 1831,450.5C 1804.94,446.763 1793.61,431.763 1797,405.5C 1800.32,391.679 1808.82,383.013 1822.5,379.5 Z"/></g>
<g><path style="opacity:0.928" fill="#000000" d="M 412.5,714.5 C 407.5,714.5 402.5,714.5 397.5,714.5C 392.24,703.645 387.24,692.645 382.5,681.5C 358.5,680.167 334.5,680.167 310.5,681.5C 305.687,692.614 300.687,703.614 295.5,714.5C 290.5,714.5 285.5,714.5 280.5,714.5C 299.714,671.736 319.214,629.069 339,586.5C 344.072,585.529 349.238,585.195 354.5,585.5C 373.553,628.608 392.886,671.608 412.5,714.5 Z M 345.5,602.5 C 346.75,602.577 347.583,603.244 348,604.5C 357.116,625.851 366.616,647.018 376.5,668C 356.5,668.667 336.5,668.667 316.5,668C 326.308,646.219 335.974,624.386 345.5,602.5 Z"/></g>
<g><path style="opacity:0.93" fill="#000000" d="M 667.5,714.5 C 662.5,714.5 657.5,714.5 652.5,714.5C 652.5,671.5 652.5,628.5 652.5,585.5C 672.503,585.333 692.503,585.5 712.5,586C 742.165,589.986 755.998,606.819 754,636.5C 749.561,657.933 736.395,670.1 714.5,673C 698.837,673.5 683.17,673.667 667.5,673.5C 667.5,687.167 667.5,700.833 667.5,714.5 Z M 667.5,598.5 C 682.504,598.333 697.504,598.5 712.5,599C 733.336,603.49 742.169,616.324 739,637.5C 736.357,647.478 730.191,654.311 720.5,658C 714.309,659.836 707.975,660.836 701.5,661C 690.172,661.5 678.838,661.667 667.5,661.5C 667.5,640.5 667.5,619.5 667.5,598.5 Z"/></g>
<g><path style="opacity:0.93" fill="#000000" d="M 1017.5,714.5 C 1012.5,714.5 1007.5,714.5 1002.5,714.5C 1002.5,671.5 1002.5,628.5 1002.5,585.5C 1022.5,585.333 1042.5,585.5 1062.5,586C 1095.27,591.044 1108.77,609.878 1103,642.5C 1096.71,660.781 1083.87,670.947 1064.5,673C 1048.84,673.5 1033.17,673.667 1017.5,673.5C 1017.5,687.167 1017.5,700.833 1017.5,714.5 Z M 1017.5,598.5 C 1032.5,598.333 1047.5,598.5 1062.5,599C 1083.34,603.49 1092.17,616.324 1089,637.5C 1086.37,647.469 1080.2,654.303 1070.5,658C 1064.31,659.836 1057.98,660.836 1051.5,661C 1040.17,661.5 1028.84,661.667 1017.5,661.5C 1017.5,640.5 1017.5,619.5 1017.5,598.5 Z"/></g>
<g><path style="opacity:0.927" fill="#000000" d="M 1457.5,714.5 C 1452.5,714.5 1447.5,714.5 1442.5,714.5C 1437.79,703.407 1432.79,692.407 1427.5,681.5C 1403.84,680.334 1380.17,680.167 1356.5,681C 1350.81,691.877 1345.81,703.044 1341.5,714.5C 1336.17,714.5 1330.83,714.5 1325.5,714.5C 1344.9,671.821 1364.4,629.154 1384,586.5C 1389.11,585.196 1394.28,585.196 1399.5,586.5C 1419.4,628.961 1438.73,671.628 1457.5,714.5 Z M 1391.5,602.5 C 1401.72,623.956 1411.72,645.623 1421.5,667.5C 1401.51,668.666 1381.51,668.833 1361.5,668C 1371.64,646.216 1381.64,624.382 1391.5,602.5 Z"/></g>
<g><path style="opacity:0.949" fill="#000000" d="M 1801.5,714.5 C 1796.17,714.5 1790.83,714.5 1785.5,714.5C 1776.58,700.908 1767.25,687.575 1757.5,674.5C 1742.51,673.501 1727.51,673.167 1712.5,673.5C 1712.5,687.167 1712.5,700.833 1712.5,714.5C 1707.83,714.5 1703.17,714.5 1698.5,714.5C 1698.5,671.5 1698.5,628.5 1698.5,585.5C 1720.21,585.068 1741.87,585.568 1763.5,587C 1792.93,594.662 1804.43,613.496 1798,643.5C 1793.72,656.947 1784.89,665.947 1771.5,670.5C 1781.94,684.928 1791.94,699.595 1801.5,714.5 Z M 1712.5,598.5 C 1727.5,598.333 1742.5,598.5 1757.5,599C 1774.67,602 1784,612.166 1785.5,629.5C 1783.41,649.748 1772.08,660.248 1751.5,661C 1738.5,661.5 1725.5,661.667 1712.5,661.5C 1712.5,640.5 1712.5,619.5 1712.5,598.5 Z"/></g>
<g><path style="opacity:0.919" fill="#000000" d="M 2142.5,714.5 C 2111.83,714.5 2081.17,714.5 2050.5,714.5C 2050.5,671.5 2050.5,628.5 2050.5,585.5C 2080.17,585.5 2109.83,585.5 2139.5,585.5C 2139.5,589.833 2139.5,594.167 2139.5,598.5C 2114.83,598.5 2090.17,598.5 2065.5,598.5C 2065.5,613.167 2065.5,627.833 2065.5,642.5C 2087.5,642.5 2109.5,642.5 2131.5,642.5C 2131.5,646.833 2131.5,651.167 2131.5,655.5C 2109.5,655.5 2087.5,655.5 2065.5,655.5C 2065.5,670.833 2065.5,686.167 2065.5,701.5C 2091.17,701.5 2116.83,701.5 2142.5,701.5C 2142.5,705.833 2142.5,710.167 2142.5,714.5 Z"/></g>
<g><path style="opacity:0.908" fill="#000000" d="M 2480.5,714.5 C 2451.5,714.5 2422.5,714.5 2393.5,714.5C 2393.5,671.5 2393.5,628.5 2393.5,585.5C 2398.5,585.5 2403.5,585.5 2408.5,585.5C 2408.5,624.167 2408.5,662.833 2408.5,701.5C 2432.5,701.5 2456.5,701.5 2480.5,701.5C 2480.5,705.833 2480.5,710.167 2480.5,714.5 Z"/></g>
</svg>
